<svg xmlns="http://www.w3.org/2000/svg" width="960" height="173" viewBox="0 0 960 173" role="img" aria-labelledby="title desc">
<title id="title">Toolkit: C, Rust, Python, JavaScript, TypeScript, Linux, Git and GTK</title>
<desc id="desc">Original artwork for Ridjan Xhika's GitHub profile. Animations respect reduced-motion preferences.</desc>
<style>
text { font-family: Inter,Segoe UI,Arial,sans-serif; }
.mono { font-family: ui-monospace,SFMono-Regular,Consolas,monospace; }

@media (prefers-reduced-motion: reduce) { * { animation: none !important; } }
</style>
<rect x="1" y="1" width="232" height="81" rx="12" fill="#0b1220" stroke="#253649"/><rect x="16" y="19" width="3" height="19" rx="1.5" fill="#65e1c6"/><text x="28" y="35" font-size="17" fill="#edf5f5" font-weight="600" >C</text><text x="17" y="61" font-size="11" fill="#9aafbe" font-weight="400" >Systems programming</text><rect x="243" y="1" width="232" height="81" rx="12" fill="#0b1220" stroke="#253649"/><rect x="258" y="19" width="3" height="19" rx="1.5" fill="#8cb8ff"/><text x="270" y="35" font-size="17" fill="#edf5f5" font-weight="600" >Rust</text><text x="259" y="61" font-size="11" fill="#9aafbe" font-weight="400" >Graphics &amp; native tools</text><rect x="485" y="1" width="232" height="81" rx="12" fill="#0b1220" stroke="#253649"/><rect x="500" y="19" width="3" height="19" rx="1.5" fill="#65e1c6"/><text x="512" y="35" font-size="17" fill="#edf5f5" font-weight="600" >Python</text><text x="501" y="61" font-size="11" fill="#9aafbe" font-weight="400" >Automation &amp; voice</text><rect x="727" y="1" width="232" height="81" rx="12" fill="#0b1220" stroke="#253649"/><rect x="742" y="19" width="3" height="19" rx="1.5" fill="#8cb8ff"/><text x="754" y="35" font-size="17" fill="#edf5f5" font-weight="600" >JavaScript</text><text x="743" y="61" font-size="11" fill="#9aafbe" font-weight="400" >Web applications</text><rect x="1" y="92" width="232" height="81" rx="12" fill="#0b1220" stroke="#253649"/><rect x="16" y="110" width="3" height="19" rx="1.5" fill="#65e1c6"/><text x="28" y="126" font-size="17" fill="#edf5f5" font-weight="600" >TypeScript</text><text x="17" y="152" font-size="11" fill="#9aafbe" font-weight="400" >Typed web development</text><rect x="243" y="92" width="232" height="81" rx="12" fill="#0b1220" stroke="#253649"/><rect x="258" y="110" width="3" height="19" rx="1.5" fill="#8cb8ff"/><text x="270" y="126" font-size="17" fill="#edf5f5" font-weight="600" >Linux</text><text x="259" y="152" font-size="11" fill="#9aafbe" font-weight="400" >My everyday environment</text><rect x="485" y="92" width="232" height="81" rx="12" fill="#0b1220" stroke="#253649"/><rect x="500" y="110" width="3" height="19" rx="1.5" fill="#65e1c6"/><text x="512" y="126" font-size="17" fill="#edf5f5" font-weight="600" >Git</text><text x="501" y="152" font-size="11" fill="#9aafbe" font-weight="400" >Version control</text><rect x="727" y="92" width="232" height="81" rx="12" fill="#0b1220" stroke="#253649"/><rect x="742" y="110" width="3" height="19" rx="1.5" fill="#8cb8ff"/><text x="754" y="126" font-size="17" fill="#edf5f5" font-weight="600" >GTK</text><text x="743" y="152" font-size="11" fill="#9aafbe" font-weight="400" >Desktop interfaces</text>
</svg>
